#!OML:ASF F:\VICON\USERDATA\INSTALL\Justin_Nancy\Justin_Nancy.ASF
:FULLY-SPECIFIED
:DEGREES
228
root -0.0804523 17.6335 -8.17614 2.42662 -3.21518 -0.462175
lowerback 6.49149 -0.124724 -0.218133
upperback 0.564793 -0.0950084 2.72377
thorax -3.0532 -0.0291221 2.94617
lowerneck -15.6222 -4.80699 -9.5372
upperneck 21.451 -6.13195 7.75038
head 9.93415 -2.76812 3.49498
rclavicle 9.74045e-015 -2.70347e-014
rhumerus -33.9787 -18.2299 -75.0022
rradius 24.4923
rwrist 11.1808
rhand -15.7692 17.8179
rfingers 7.12502
rthumb 10.4228 -11.9038
lclavicle 9.74045e-015 -2.70347e-014
lhumerus -32.123 2.10583 86.8654
lradius 33.1377
lwrist -6.58436
lhand -10.7117 25.8109
lfingers 7.12502
lthumb 15.2983 55.2251
rfemur -13.3852 4.27195 25.6708
rtibia 26.6231
rfoot -11.4752 -3.60946
rtoes 4.60428
lfemur -18.2111 1.41076 -19.1738
ltibia 64.5295
lfoot -2.95692 -6.4362
ltoes -3.30777
229
root -0.0826104 17.6242 -8.00612 2.38626 -3.39564 -0.481315
lowerback 6.57118 0.00737203 -0.0234574
upperback 0.542264 0.0937589 2.63075
thorax -3.13055 0.0624552 2.72313
lowerneck -15.5104 -4.86177 -9.52287
upperneck 21.3901 -6.19344 7.64735
head 9.89378 -2.80897 3.44742
rclavicle 8.54774e-015 2.3059e-014
rhumerus -33.7581 -17.6394 -75.4469
rradius 24.801
rwrist 10.4893
rhand -15.7253 18.2288
rfingers 7.12502
rthumb 10.4651 -11.4907
lclavicle 8.54774e-015 2.3059e-014
lhumerus -32.402 2.14986 86.7745
lradius 33.0705
lwrist -6.61299
lhand -11.0765 25.4685
lfingers 7.12502
lthumb 14.9468 54.9092
rfemur -12.5949 4.04157 25.7218
rtibia 26.4987
rfoot -11.6496 -3.54863
rtoes 1.20757
lfemur -19.4272 1.75948 -19.1963
ltibia 64.558
lfoot -4.4188 -5.38471
ltoes -3.44152
230
root -0.0871997 17.6147 -7.8418 2.35101 -3.78313 -0.49295
lowerback 6.69457 0.186892 0.0883025
upperback 0.493037 0.341373 2.54785
thorax -3.26114 0.184664 2.55163
lowerneck -15.2423 -4.90228 -9.55048
upperneck 21.2647 -6.24106 7.56869
head 9.80207 -2.84766 3.41895
rclavicle -2.68359e-015 6.36111e-015
rhumerus -33.6396 -16.9726 -75.9329
rradius 25.3631
rwrist 9.98509
rhand -15.8374 17.4393
rfingers 7.12502
rthumb 10.357 -12.2857
lclavicle -2.68359e-015 6.36111e-015
lhumerus -32.8237 2.32282 86.6788
lradius 33.1402
lwrist -6.58599
lhand -10.9662 25.8646
lfingers 7.12502
lthumb 15.053 55.2974
rfemur -11.8467 4.01405 25.7918
rtibia 26.3303
rfoot -12.0573 -3.56952
rtoes -1.11979
lfemur -20.5894 2.23573 -19.2004
ltibia 64.4565
lfoot -5.88876 -4.4
ltoes -3.5572
231
root -0.0978656 17.6046 -7.68708 2.32235 -4.17547 -0.777604
lowerback 6.95021 0.382558 0.334332
upperback 0.535429 0.625002 2.57908
thorax -3.37074 0.32255 2.41783
lowerneck -15.4885 -4.90792 -9.49755
upperneck 21.3226 -6.20866 7.43294
head 9.85952 -2.8375 3.3637
rclavicle -7.35503e-015 -7.95139e-016
rhumerus -33.2556 -16.3583 -76.4413
rradius 26.0156
rwrist 9.84399
rhand -15.7085 16.1428
rfingers 7.12502
rthumb 10.4814 -13.5759
lclavicle -7.35503e-015 -7.95139e-016
lhumerus -33.1311 2.43926 86.6153
lradius 33.4479
lwrist -6.42195
lhand -10.55 26.0219
lfingers 7.12502
lthumb 15.4539 55.4241
rfemur -11.0171 4.31746 26.1746
rtibia 26.0772
rfoot -12.4908 -3.7485
rtoes -1.19384
lfemur -21.8289 2.70729 -18.8518
ltibia 64.2931
lfoot -7.12332 -3.61951
ltoes -4.22728
232
root -0.102206 17.595 -7.52901 2.3227 -4.37206 -1.12092
lowerback 7.1908 0.498414 0.803545
upperback 0.5418 0.820521 2.56319
thorax -3.49995 0.412758 2.11653
lowerneck -15.4384 -4.84381 -9.47158
upperneck 21.1659 -6.12079 7.437
head 9.78526 -2.79498 3.37173
rclavicle -8.44835e-015 7.95139e-015
rhumerus -32.8856 -15.7908 -76.9
rradius 26.4668
rwrist 9.70901
rhand -15.5499 15.5435
rfingers 7.12502
rthumb 10.6343 -14.1675
lclavicle -8.44835e-015 7.95139e-015
lhumerus -33.5405 2.38193 86.4964
lradius 33.7874
lwrist -6.35498
lhand -10.7694 24.925
lfingers 7.12502
lthumb 15.2426 54.3435
rfemur -10.1649 4.29273 26.5892
rtibia 25.7712
rfoot -12.9131 -3.83988
rtoes -1.47409
lfemur -23.1306 2.97036 -18.4759
ltibia 64.0088
lfoot -7.75559 -2.80503
ltoes -5.56006
